<svg width="43" height="48" viewBox="0 0 43 48" fill="none" xmlns="http://www.w3.org/2000/svg">
<g opacity="0.84">
<path d="M32.2883 37.123L30.1672 39.2441L22.8284 31.9053L22.8293 45L21.3284 44.999L19.8274 45V31.9062L12.4895 39.2441L10.3684 37.123L21.3284 26.1631L32.2883 37.123ZM19.2073 24.042L8.24731 35.002L6.12622 32.8809L13.4651 25.541H0.290283V22.542H13.4651L6.12622 15.2031L8.24731 13.0811L19.2073 24.042ZM36.5305 15.2031L29.1917 22.542H42.2864V25.541H29.1917L36.5305 32.8809L34.4094 35.002L23.4495 24.042L34.4094 13.0811L36.5305 15.2031ZM22.8284 16.1777L30.1672 8.83887L32.2883 10.96L21.3284 21.9199L10.3684 10.96L12.4895 8.83887L19.8284 16.1777V3H22.8284V16.1777Z" fill="#1B1B1B"/>
</g>
</svg>
